<?xml version="1.0" encoding="utf-8"?>
<svg id="master-artboard" viewBox="0 0 844.89794921875 193.06121826171875" version="1.1" xmlns="http://www.w3.org/2000/svg" x="0px" y="0px" style="enable-background:new 0 0 1400 980;" width="844.89794921875px" height="193.06121826171875px"><defs><style id="ee-google-fonts">@import url(https://fonts.googleapis.com/css?family=Montserrat:400,700);</style></defs><rect id="ee-background" x="0" y="0" width="844.89794921875" height="193.06121826171875" style="fill: rgb(255, 255, 255); fill-opacity: 0; pointer-events: none;"/>








































<path d="M 18.81999969482422 15.220000267028809 C 18.81999969482422 15.220000267028809 18.81999969482422 14.766666412353516 18.81999969482422 13.859999656677246 C 18.81999969482422 12.960000038146973 18.31333351135254 11.993332862854004 17.299999237060547 10.959999084472656 C 16.293333053588867 9.920000076293945 15.050000190734863 9.399999618530273 13.569999694824219 9.399999618530273 C 12.083333015441895 9.399999618530273 10.800000190734863 9.920000076293945 9.720000267028809 10.959999084472656 C 8.646666526794434 11.993332862854004 8.109999656677246 13.40666675567627 8.109999656677246 15.199999809265137 C 8.109999656677246 16.993331909179688 8.633333206176758 18.439998626708984 9.680000305175781 19.540000915527344 C 10.733333587646484 20.64666748046875 12.013333320617676 21.200000762939453 13.520000457763672 21.200000762939453 C 15.033333778381348 21.200000762939453 16.293333053588867 20.656665802001953 17.299999237060547 19.56999969482422 C 18.31333351135254 18.476665496826172 18.81999969482422 17.02666664123535 18.81999969482422 15.220000267028809 M 19.700000762939453 23.18000030517578 C 17.713333129882812 25.393333435058594 15.243332862854004 26.5 12.289999961853027 26.5 C 9.329999923706055 26.5 6.836666584014893 25.496665954589844 4.809999942779541 23.489999771118164 C 2.7766666412353516 21.489999771118164 1.7599999904632568 18.816665649414062 1.7599999904632568 15.470000267028809 C 1.7599999904632568 12.123332977294922 2.803333282470703 9.379999160766602 4.889999866485596 7.239999771118164 C 6.976666450500488 5.100000381469727 9.363333702087402 4.030000686645508 12.050000190734863 4.030000686645508 C 14.743332862854004 4.030000686645508 16.969999313354492 5.133333206176758 18.729999542236328 7.340000152587891 L 18.729999542236328 4.3600006103515625 L 25.030000686645508 4.3600006103515625 L 25.030000686645508 24.059999465942383 C 25.030000686645508 26.073333740234375 24.68000030517578 27.866666793823242 23.979999542236328 29.440000534057617 C 23.280000686645508 31.00666618347168 22.343334197998047 32.23666763305664 21.170000076293945 33.130001068115234 C 18.843334197998047 34.97666549682617 16.100000381469727 35.900001525878906 12.9399995803833 35.900001525878906 C 11.260000228881836 35.900001525878906 9.543333053588867 35.630001068115234 7.789999961853027 35.09000015258789 C 6.043333530426025 34.5433349609375 4.510000228881836 33.76333236694336 3.190000057220459 32.75 L 5.630000114440918 28.010000228881836 C 7.703333377838135 29.5766658782959 9.893333435058594 30.360000610351562 12.199999809265137 30.360000610351562 C 14.513333320617676 30.360000610351562 16.34000015258789 29.786666870117188 17.68000030517578 28.639999389648438 C 19.02666664123535 27.49333381652832 19.700000762939453 25.6733341217041 19.700000762939453 23.18000030517578 ZM 36.39546585083008 15.699999809265137 C 36.39546585083008 15.699999809265137 36.39546585083008 16.163333892822266 36.39546585083008 17.09000015258789 C 36.39546585083008 18.010000228881836 36.92213439941406 19.053333282470703 37.9754638671875 20.219999313354492 C 39.022132873535156 21.380001068115234 40.36546325683594 21.959999084472656 42.00546646118164 21.959999084472656 C 43.64546585083008 21.959999084472656 44.988800048828125 21.380001068115234 46.035465240478516 20.219999313354492 C 47.08879852294922 19.053333282470703 47.61546325683594 17.546667098999023 47.61546325683594 15.699999809265137 C 47.61546325683594 13.853333473205566 47.08879852294922 12.34333324432373 46.035465240478516 11.170000076293945 C 44.988800048828125 9.989999771118164 43.64546585083008 9.399999618530273 42.00546646118164 9.399999618530273 C 40.36546325683594 9.399999618530273 39.022132873535156 9.989999771118164 37.9754638671875 11.170000076293945 C 36.92213439941406 12.34333324432373 36.39546585083008 13.853333473205566 36.39546585083008 15.699999809265137 M 53.955467224121094 15.699999809265137 C 53.955467224121094 15.699999809265137 53.955467224121094 16.520000457763672 53.955467224121094 18.15999984741211 C 53.955467224121094 19.799999237060547 52.8221321105957 21.739999771118164 50.55546569824219 23.979999542236328 C 48.28213119506836 26.219999313354492 45.432132720947266 27.34000015258789 42.00546646118164 27.34000015258789 C 38.5721321105957 27.34000015258789 35.72213363647461 26.219999313354492 33.455467224121094 23.979999542236328 C 31.188798904418945 21.739999771118164 30.055465698242188 18.979999542236328 30.055465698242188 15.699999809265137 C 30.055465698242188 12.426666259765625 31.188798904418945 9.663333892822266 33.455467224121094 7.409999847412109 C 35.72213363647461 5.156665802001953 38.5721321105957 4.030000686645508 42.00546646118164 4.030000686645508 C 45.432132720947266 4.030000686645508 48.28213119506836 5.156665802001953 50.55546569824219 7.409999847412109 C 52.8221321105957 9.663333892822266 53.955467224121094 12.426666259765625 53.955467224121094 15.699999809265137 ZM 64.01499938964844 15.699999809265137 C 64.01499938964844 15.699999809265137 64.01499938964844 16.163333892822266 64.01499938964844 17.09000015258789 C 64.01499938964844 18.010000228881836 64.54167175292969 19.053333282470703 65.59500122070312 20.219999313354492 C 66.64167022705078 21.380001068115234 67.98500061035156 21.959999084472656 69.625 21.959999084472656 C 71.26499938964844 21.959999084472656 72.60833740234375 21.380001068115234 73.65499877929688 20.219999313354492 C 74.70833587646484 19.053333282470703 75.23500061035156 17.546667098999023 75.23500061035156 15.699999809265137 C 75.23500061035156 13.853333473205566 74.70833587646484 12.34333324432373 73.65499877929688 11.170000076293945 C 72.60833740234375 9.989999771118164 71.26499938964844 9.399999618530273 69.625 9.399999618530273 C 67.98500061035156 9.399999618530273 66.64167022705078 9.989999771118164 65.59500122070312 11.170000076293945 C 64.54167175292969 12.34333324432373 64.01499938964844 13.853333473205566 64.01499938964844 15.699999809265137 M 81.57500457763672 15.699999809265137 C 81.57500457763672 15.699999809265137 81.57500457763672 16.520000457763672 81.57500457763672 18.15999984741211 C 81.57500457763672 19.799999237060547 80.44166564941406 21.739999771118164 78.17500305175781 23.979999542236328 C 75.90167236328125 26.219999313354492 73.05166625976562 27.34000015258789 69.625 27.34000015258789 C 66.19166564941406 27.34000015258789 63.341670989990234 26.219999313354492 61.07500457763672 23.979999542236328 C 58.80833435058594 21.739999771118164 57.67500305175781 18.979999542236328 57.67500305175781 15.699999809265137 C 57.67500305175781 12.426666259765625 58.80833435058594 9.663333892822266 61.07500457763672 7.409999847412109 C 63.341670989990234 5.156665802001953 66.19166564941406 4.030000686645508 69.625 4.030000686645508 C 73.05166625976562 4.030000686645508 75.90167236328125 5.156665802001953 78.17500305175781 7.409999847412109 C 80.44166564941406 9.663333892822266 81.57500457763672 12.426666259765625 81.57500457763672 15.699999809265137 ZM 95.64453887939453 27.34000015258789 C 95.64453887939453 27.34000015258789 94.97787475585938 27.34000015258789 93.64453887939453 27.34000015258789 C 92.3045425415039 27.34000015258789 90.58454132080078 26.203332901000977 88.48454284667969 23.93000030517578 C 86.38453674316406 21.663333892822266 85.33454132080078 18.850000381469727 85.33454132080078 15.489999771118164 C 85.33454132080078 12.130000114440918 86.35787200927734 9.379999160766602 88.404541015625 7.239999771118164 C 90.44454193115234 5.100000381469727 92.83787536621094 4.030000686645508 95.58454132080078 4.030000686645508 C 98.33120727539062 4.030000686645508 100.57120513916016 4.99333381652832 102.3045425415039 6.920000076293945 L 102.3045425415039 -4.159999847412109 L 108.60453796386719 -4.159999847412109 L 108.60453796386719 27 L 102.3045425415039 27 L 102.3045425415039 24.020000457763672 C 100.53787231445312 26.233333587646484 98.31787109375 27.34000015258789 95.64453887939453 27.34000015258789 M 91.6745376586914 15.739999771118164 C 91.6745376586914 15.739999771118164 91.6745376586914 16.196666717529297 91.6745376586914 17.110000610351562 C 91.6745376586914 18.016666412353516 92.22120666503906 19.053333282470703 93.31453704833984 20.219999313354492 C 94.40787506103516 21.380001068115234 95.68120574951172 21.959999084472656 97.13453674316406 21.959999084472656 C 98.59454345703125 21.959999084472656 99.83454132080078 21.380001068115234 100.85453796386719 20.219999313354492 C 101.87454223632812 19.053333282470703 102.38453674316406 17.553333282470703 102.38453674316406 15.720000267028809 C 102.38453674316406 13.886666297912598 101.87454223632812 12.359999656677246 100.85453796386719 11.140000343322754 C 99.83454132080078 9.926666259765625 98.58120727539062 9.319999694824219 97.09454345703125 9.319999694824219 C 95.61454010009766 9.319999694824219 94.3412094116211 9.936666488647461 93.2745361328125 11.170000076293945 C 92.20787048339844 12.396666526794434 91.6745376586914 13.920000076293945 91.6745376586914 15.739999771118164 ZM 127.77803039550781 3.309999465942383 L 127.77803039550781 27 L 121.22802734375 27 L 121.22802734375 3.309999465942383 L 112.91802978515625 3.309999465942383 L 112.91802978515625 -2.3600006103515625 L 136.0980224609375 -2.3600006103515625 L 136.0980224609375 3.309999465942383 L 127.77803039550781 3.309999465942383 ZM 146.7057647705078 27 L 140.40576171875 27 L 140.40576171875 4.399999618530273 L 146.7057647705078 4.399999618530273 L 146.7057647705078 27 M 140.93576049804688 1.5300006866455078 C 140.93576049804688 1.5300006866455078 140.75576782226562 1.3500003814697266 140.39576721191406 0.9899997711181641 C 140.0424346923828 0.6366672515869141 139.8657684326172 -0.05999946594238281 139.8657684326172 -1.1000003814697266 C 139.8657684326172 -2.133333206176758 140.22242736816406 -3.0066661834716797 140.93576049804688 -3.719999313354492 C 141.6490936279297 -4.433332443237305 142.52243041992188 -4.790000915527344 143.55577087402344 -4.790000915527344 C 144.59576416015625 -4.790000915527344 145.47242736816406 -4.433332443237305 146.18576049804688 -3.719999313354492 C 146.8990936279297 -3.0066661834716797 147.25576782226562 -2.133333206176758 147.25576782226562 -1.1000003814697266 C 147.25576782226562 -0.05999946594238281 146.8990936279297 0.8166675567626953 146.18576049804688 1.5300006866455078 C 145.47242736816406 2.2433338165283203 144.59576416015625 2.6000003814697266 143.55577087402344 2.6000003814697266 C 142.52243041992188 2.6000003814697266 141.6490936279297 2.2433338165283203 140.93576049804688 1.5300006866455078 ZM 173.7828369140625 14.819999694824219 L 173.7828369140625 27 L 167.44284057617188 27 L 167.44284057617188 14.649999618530273 C 167.44284057617188 12.856666564941406 167.1695098876953 11.539999961853027 166.62283325195312 10.700000762939453 C 166.076171875 9.860000610351562 165.19284057617188 9.440000534057617 163.97283935546875 9.440000534057617 C 162.75950622558594 9.440000534057617 161.68284606933594 9.89666748046875 160.7428436279297 10.809999465942383 C 159.80284118652344 11.716666221618652 159.3328399658203 13.053333282470703 159.3328399658203 14.819999694824219 L 159.3328399658203 27 L 153.0328369140625 27 L 153.0328369140625 4.399999618530273 L 159.3328399658203 4.399999618530273 L 159.3328399658203 6.969999313354492 C 161.07284545898438 5.010000228881836 163.06283569335938 4.030000686645508 165.30284118652344 4.030000686645508 C 166.72950744628906 4.030000686645508 168.02284240722656 4.450000762939453 169.18284606933594 5.290000915527344 C 170.34283447265625 6.129999160766602 171.21951293945312 7.149999618530273 171.81283569335938 8.350000381469727 C 172.67950439453125 6.976667404174805 173.84617614746094 5.913333892822266 175.31283569335938 5.159999847412109 C 176.7861785888672 4.406665802001953 178.26284790039062 4.030000686645508 179.7428436279297 4.030000686645508 C 182.40283203125 4.030000686645508 184.54617309570312 4.819999694824219 186.17283630371094 6.399999618530273 C 187.79949951171875 7.979999542236328 188.6128387451172 10.270000457763672 188.6128387451172 13.270000457763672 L 188.6128387451172 27 L 182.26284790039062 27 L 182.26284790039062 14.649999618530273 C 182.26284790039062 11.176666259765625 180.989501953125 9.440000534057617 178.44284057617188 9.440000534057617 C 177.18284606933594 9.440000534057617 176.09283447265625 9.89666748046875 175.17283630371094 10.809999465942383 C 174.2461700439453 11.716666221618652 173.7828369140625 13.053333282470703 173.7828369140625 14.819999694824219 ZM 214.2489471435547 23.719999313354492 C 211.7022705078125 26.133333206176758 208.71560668945312 27.34000015258789 205.2889404296875 27.34000015258789 C 201.85560607910156 27.34000015258789 199.01895141601562 26.28333282470703 196.77894592285156 24.170000076293945 C 194.5389404296875 22.049999237060547 193.4189453125 19.213333129882812 193.4189453125 15.65999984741211 C 193.4189453125 12.106666564941406 194.56227111816406 9.280000686645508 196.84893798828125 7.180000305175781 C 199.12893676757812 5.079999923706055 201.82228088378906 4.030000686645508 204.92893981933594 4.030000686645508 C 208.03561401367188 4.030000686645508 210.6756134033203 4.966667175292969 212.84893798828125 6.840000152587891 C 215.01560974121094 8.713333129882812 216.09893798828125 11.289999961853027 216.09893798828125 14.569999694824219 L 216.09893798828125 17.93000030517578 L 199.63894653320312 17.93000030517578 C 199.832275390625 19.163333892822266 200.47561645507812 20.170000076293945 201.56893920898438 20.950000762939453 C 202.6622772216797 21.73666763305664 203.89561462402344 22.130001068115234 205.26895141601562 22.130001068115234 C 207.47561645507812 22.130001068115234 209.2956085205078 21.386667251586914 210.72894287109375 19.899999618530273 L 214.2489471435547 23.719999313354492 M 209.7189483642578 13.430000305175781 C 209.57894897460938 12.09000015258789 209.0756072998047 11.056666374206543 208.2089385986328 10.329999923706055 C 207.3356170654297 9.59666633605957 206.27894592285156 9.229999542236328 205.0389404296875 9.229999542236328 C 203.7922821044922 9.229999542236328 202.64894104003906 9.610000610351562 201.60894775390625 10.370000839233398 C 200.5756072998047 11.123332977294922 199.97561645507812 12.143333435058594 199.80894470214844 13.430000305175781 L 209.7189483642578 13.430000305175781 ZM 238.00660705566406 19.959999084472656 C 238.00660705566406 19.959999084472656 238.00660705566406 20.516666412353516 238.00660705566406 21.630001068115234 C 238.00660705566406 22.74333381652832 237.18994140625 23.97333335876465 235.55661010742188 25.31999969482422 C 233.91659545898438 26.66666603088379 231.83660888671875 27.34000015258789 229.3166046142578 27.34000015258789 C 227.6365966796875 27.34000015258789 225.8865966796875 27.036666870117188 224.0666046142578 26.43000030517578 C 222.24659729003906 25.829999923706055 220.60659790039062 24.94333267211914 219.1466064453125 23.770000457763672 L 221.92660522460938 19.81999969482422 C 224.2732696533203 21.639999389648438 226.77659606933594 22.549999237060547 229.4365997314453 22.549999237060547 C 230.24993896484375 22.549999237060547 230.8966064453125 22.386667251586914 231.37660217285156 22.059999465942383 C 231.8499298095703 21.739999771118164 232.08660888671875 21.31333351135254 232.08660888671875 20.780000686645508 C 232.08660888671875 20.253334045410156 231.75660705566406 19.76333236694336 231.0966033935547 19.309999465942383 C 230.44326782226562 18.86333465576172 229.49327087402344 18.44333267211914 228.24659729003906 18.049999237060547 C 226.99993896484375 17.663333892822266 226.04660034179688 17.329999923706055 225.3865966796875 17.049999237060547 C 224.7266082763672 16.770000457763672 223.9766082763672 16.36333465576172 223.1365966796875 15.829999923706055 C 221.429931640625 14.763333320617676 220.57659912109375 13.186666488647461 220.57659912109375 11.100000381469727 C 220.57659912109375 9.013334274291992 221.41659545898438 7.313333511352539 223.0966033935547 6 C 224.77659606933594 4.686666488647461 226.94659423828125 4.030000686645508 229.60659790039062 4.030000686645508 C 232.2666015625 4.030000686645508 234.92660522460938 4.923334121704102 237.58660888671875 6.709999084472656 L 235.23660278320312 10.90999984741211 C 233.27659606933594 9.569999694824219 231.32327270507812 8.899999618530273 229.37660217285156 8.899999618530273 C 227.429931640625 8.899999618530273 226.45660400390625 9.430000305175781 226.45660400390625 10.489999771118164 C 226.45660400390625 11.083333015441895 226.7666015625 11.546667098999023 227.3865966796875 11.880000114440918 C 227.99993896484375 12.213333129882812 229.01992797851562 12.606666564941406 230.44659423828125 13.0600004196167 C 231.87326049804688 13.506667137145996 232.8899383544922 13.84666633605957 233.49659729003906 14.079999923706055 C 234.0966033935547 14.319999694824219 234.8166046142578 14.693333625793457 235.65660095214844 15.199999809265137 C 237.2232666015625 16.15333366394043 238.00660705566406 17.739999771118164 238.00660705566406 19.959999084472656 ZM 243.63868713378906 26.260000228881836 C 243.63868713378906 26.260000228881836 243.46202087402344 26.08333396911621 243.1086883544922 25.729999542236328 C 242.74868774414062 25.3700008392334 242.56869506835938 24.6733341217041 242.56869506835938 23.639999389648438 C 242.56869506835938 22.606666564941406 242.92535400390625 21.729999542236328 243.63868713378906 21.010000228881836 C 244.35202026367188 20.296667098999023 245.2286834716797 19.940000534057617 246.26869201660156 19.940000534057617 C 247.30201721191406 19.940000534057617 248.17535400390625 20.296667098999023 248.88868713378906 21.010000228881836 C 249.60202026367188 21.729999542236328 249.9586944580078 22.606666564941406 249.9586944580078 23.639999389648438 C 249.9586944580078 24.6733341217041 249.60202026367188 25.546667098999023 248.88868713378906 26.260000228881836 C 248.17535400390625 26.979999542236328 247.30201721191406 27.34000015258789 246.26869201660156 27.34000015258789 C 245.2286834716797 27.34000015258789 244.35202026367188 26.979999542236328 243.63868713378906 26.260000228881836 Z" transform="matrix(2.9641542434692383, 0, 0, 2.9641542434692383, 48.66221618652344, 54.13492965698242)" style="fill: rgb(0, 0, 0); white-space: pre; color: rgb(51, 51, 51);"/></svg>